<?xml version="1.0" encoding="UTF-8" standalone="no"?>
<svg
   xmlns:dc="http://purl.org/dc/elements/1.1/"
   xmlns:cc="http://creativecommons.org/ns#"
   xmlns:rdf="http://www.w3.org/1999/02/22-rdf-syntax-ns#"
   xmlns:svg="http://www.w3.org/2000/svg"
   xmlns="http://www.w3.org/2000/svg"
   xmlns:sodipodi="http://sodipodi.sourceforge.net/DTD/sodipodi-0.dtd"
   xmlns:inkscape="http://www.inkscape.org/namespaces/inkscape"
   inkscape:version="1.0 (4035a4fb49, 2020-05-01)"
   sodipodi:docname="Screenshot from 2020-05-11 22-27-54.png.svg"
   viewBox="0 0 712 350"
   height="350"
   width="712"
   id="svg10"
   version="1.1">
  <metadata
     id="metadata16">
    <rdf:RDF>
      <cc:Work
         rdf:about="">
        <dc:format>image/svg+xml</dc:format>
        <dc:type
           rdf:resource="http://purl.org/dc/dcmitype/StillImage" />
        <dc:title></dc:title>
      </cc:Work>
    </rdf:RDF>
  </metadata>
  <defs
     id="defs14" />
  <sodipodi:namedview
     inkscape:current-layer="g18"
     inkscape:window-maximized="1"
     inkscape:window-y="20"
     inkscape:window-x="30"
     inkscape:cy="191.94425"
     inkscape:cx="415.25315"
     inkscape:zoom="1.7332639"
     showgrid="false"
     id="namedview12"
     inkscape:window-height="759"
     inkscape:window-width="1250"
     inkscape:pageshadow="2"
     inkscape:pageopacity="0"
     guidetolerance="10"
     gridtolerance="10"
     objecttolerance="10"
     borderopacity="1"
     bordercolor="#666666"
     pagecolor="#ffffff" />
  <g
     id="g18"
     inkscape:label="Image"
     inkscape:groupmode="layer">
    <path
       sodipodi:nodetypes="sssssccccssssssscccsssss"
       id="path24"
       d="m 127.12292,226.5005 c -4.84016,-2.42021 -9.56754,-7.28026 -15.30295,-15.7324 -5.44194,-8.01967 -9.44392,-12.40562 -13.373318,-14.65644 -1.410836,-0.80815 -3.157841,-1.66932 -3.864703,-2.28334 -0.912204,-0.79239 -1.302015,-2.74029 -0.105566,-3.19193 3.673508,-1.38671 8.315147,-1.30701 11.608977,-4.58507 10.19532,-6.56643 12.6416,-20.49878 7.56103,-29.30795 -7.8571,-5.95245 -16.455802,-1.71912 -18.451548,5.90387 -0.80589,3.19379 -0.88152,5.91921 -0.88251,31.80024 -0.001,32.09716 -0.0411,32.54109 -2.9723,33.09099 -0.92542,0.17361 -1.77323,0.22502 -1.884,0.11424 -0.11078,-0.11078 0.23513,-7.36368 0.76869,-16.11756 1.0844,-17.79116 1.21272,-27.89664 0.45671,-35.96738 -0.90177,-9.62681 -3.42002,-16.96915 -6.90891,-20.14397 -1.83201,-1.66709 -2.27008,-3.90438 -1.08249,-5.5285 0.97693,-1.33602 6.67575,-1.84356 18.319748,-1.63154 12.24178,0.22289 13.85208,0.59816 17.28115,4.02723 9.60341,13.77212 -1.00962,34.07714 -10.40891,39.06795 l -5.21026,2.66882 6.18738,7.89347 c 7.25174,9.25134 12.44628,14.90109 16.55965,18.01086 3.33321,2.51994 8.17224,4.98052 9.79595,4.9811 1.26286,4.4e-4 1.37873,0.79901 0.33263,2.29252 -1.18119,1.68638 -4.13622,1.43901 -8.42445,-0.70521 z"
       style="fill:#000000;stroke-width:0.479781" />
    <path
       id="path43"
       d="m 178.87576,225.66911 c -11.92985,-1.279 -21.57158,-6.38334 -26.70224,-14.13618 -7.61689,-11.50975 -7.53706,-29.53944 0.18687,-42.20391 8.70821,-14.27833 32.38888,-21.41593 51.37129,-15.48382 1.16238,0.36325 2.1509,0.69541 2.19671,0.73813 0.0458,0.0427 -0.27433,0.90063 -0.71141,1.90647 -1.05159,2.41997 -1.60878,2.6592 -4.62027,1.98367 -3.18588,-0.71465 -12.10399,-1.01082 -15.53486,-0.51592 -12.49529,1.80244 -21.8345,8.07708 -26.67647,17.92283 -1.2238,2.4885 -2.32874,5.51881 -2.09796,5.75368 0.0818,0.0832 7.34612,0.31151 16.14298,0.50729 14.08166,0.3134 22.73564,0.72962 23.99185,1.15391 0.52998,0.17901 0.49973,1.21121 -0.0767,2.61515 l -0.47258,1.15109 -20.43192,-0.23879 -20.43191,-0.23878 v 1.00036 c 0,2.32229 1.04799,8.36132 1.9284,11.1124 1.36298,4.25903 3.17794,7.32348 6.14834,10.38112 3.93521,4.05081 10.89927,8.3696 14.72816,9.13373 3.08731,0.61614 7.90453,0.74597 15.52,0.41828 10.78972,-0.46429 14.28584,0.0829 13.78403,2.15742 -0.11447,0.47323 -0.7483,1.51317 -1.40853,2.31099 l -1.2004,1.45057 -7.56714,0.70104 c -7.6863,0.71207 -13.97405,0.85799 -18.06628,0.41927 z"
       style="fill:#0000ff;stroke-width:0.31953" />
    <path
       sodipodi:nodetypes="ssssssscssssssssssssssssccsssss"
       id="path51"
       d="m 270.80673,229.4543 c 0.15306,-1.55531 0.3919,-3.72333 0.53077,-4.81781 0.3014,-2.37566 0.0616,-2.44444 -2.67703,-0.76786 -3.66278,2.24233 -6.89439,3.06451 -12.9228,3.28778 -8.73445,0.32348 -15.13278,-1.3941 -21.79662,-5.85115 -4.10489,-2.74552 -7.28184,-6.39883 -9.76305,-11.22693 -3.34947,-6.51763 -3.89744,-8.75422 -4.10566,-16.7576 -0.16638,-6.39553 -0.0992,-7.22556 0.899,-11.09834 3.49825,-13.57308 12.47518,-22.76204 26.0913,-26.70758 2.74122,-0.79432 4.23417,-0.94218 9.33754,-0.92476 5.28821,0.018 6.38424,0.1431 8.46615,0.96595 4.06672,1.6073 5.51825,4.45735 3.88182,7.62186 -0.81977,1.58527 -1.31667,1.56513 -1.67534,-0.0679 -0.37825,-1.72216 -2.84838,-4.4112 -4.5209,-4.92155 -5.91543,-1.80503 -13.63487,0.49008 -20.8196,6.19001 -6.76843,5.36964 -11.7233,12.8128 -13.82847,20.77297 -1.23287,4.66175 -1.54744,12.39986 -0.67112,16.50872 1.80471,8.46193 5.9942,12.86263 15.14172,15.90511 9.32783,3.10245 18.98182,2.65451 24.99313,-1.15966 3.4316,-2.17734 4.1091,-4.64576 4.38134,-15.96286 0.21372,-8.88458 0.11017,-9.43604 -2.0771,-11.06152 -0.95842,-0.71226 -1.92413,-0.90556 -5.10898,-1.02266 -4.58136,-0.16844 -6.1618,0.1219 -14.79224,2.71745 -4.51508,1.35788 -6.55166,1.79927 -6.8634,1.48753 -0.92556,-0.92556 -3.80208,-3.56846 0.58671,-4.43485 7.92486,-0.22845 20.32192,-4.15344 27.35269,-0.67309 3.55475,1.78336 3.78662,2.53949 3.72563,12.14926 -0.0455,7.17233 -0.9426,23.28261 -1.68545,30.26841 -0.23654,2.22442 -0.33665,2.4089 -1.30724,2.4089 -1.04584,0 -1.0497,-0.0141 -0.7728,-2.82784 z"
       style="fill:#000000;stroke-width:0.41894" />
    <path
       id="path83"
       d="m 64.4952,248.65699 c -0.19017,-4.37995 -0.302544,-8.0096 -0.249719,-8.06589 0.05282,-0.0563 21.698914,0.0498 48.102429,0.23574 163.11916,1.14876 157.19072,1.12914 159.88804,0.52904 7.16013,-1.59297 12.75943,-6.37378 17.26509,-14.74132 2.0147,-3.74154 4.18064,-9.44828 5.18359,-13.65754 1.03069,-4.32568 6.5054,-31.73345 9.98554,-49.99007 1.2511,-6.56321 2.42862,-12.69506 2.6167,-13.62633 l 0.34197,-1.69321 h 1.83167 1.83168 l 4.03139,8.29115 c 12.80302,26.33132 23.45837,44.39937 33.76154,57.24875 3.03279,3.78227 3.5542,4.32731 3.85347,4.02804 0.49871,-0.49872 10.20786,-29.983 17.81084,-54.08714 2.48981,-7.8936 9.75783,-31.31859 16.15115,-52.05556 6.39331,-20.736963 11.6982,-37.777573 11.78866,-37.868013 0.18613,-0.18612 5.08283,0.88168 5.64962,1.23198 0.2566,0.15859 -3.26064,12.47209 -11.57099,40.508893 -21.07717,71.10848 -21.01832,70.89944 -28.09051,99.78535 -6.82357,27.87044 -7.17621,29.1662 -7.96989,29.2844 -0.67732,0.10087 0.0296,1.26019 -33.47743,-54.90015 -10.98019,-18.40363 -9.77514,-17.23116 -11.62672,-11.3124 -1.54021,4.92342 -2.42882,9.31464 -4.34015,21.44736 -3.64257,23.12242 -5.25414,28.87592 -11.81638,42.18604 -2.61643,5.30688 -6.72518,8.52591 -12.85329,10.07001 -4.32338,1.08936 -9.79889,1.30491 -23.06536,0.90801 -11.53321,-0.34504 -16.15719,-0.26306 -99.65763,1.76686 -48.15979,1.17078 -89.243172,2.19863 -91.296402,2.28412 l -3.733143,0.15543 z"
       style="fill:#ff0000;stroke-width:0.322517" />
    <path
       sodipodi:nodetypes="sccscssssssscs"
       id="path91"
       d="m 410.83553,78.772101 c -1.70442,-8.79158 -4.13816,-16.838638 -4.21164,-16.920348 -12.03579,2.822354 -18.38143,11.086856 -29.84403,17.138438 -0.022,0 -0.84594,-0.92038 -1.83088,-2.04529 l -1.79079,-2.0453 19.70765,-11.36227 c 10.83921,-6.24924 19.76492,-11.38513 19.8349,-11.41308 0.07,-0.0279 0.41078,1.84817 0.75732,4.16914 0.34653,2.32097 1.29268,8.05745 2.10255,12.74773 3.59309,20.80898 4.25025,24.93898 3.99355,25.09763 -0.13551,0.0838 -1.06939,0.2093 -2.07529,0.27899 -1.0059,0.0697 -2.21489,0.17449 -2.68664,0.23288 l -0.85774,0.10616 z"
       style="fill:#ff0000;stroke-width:0.189506" />
    <path
       id="path97"
       d="m 418.82299,224.48919 c 0,-3.87965 -0.11843,-5.29124 -0.45333,-5.40309 -7.32234,-2.4457 -20.32691,-8.58515 -25.48427,-12.03112 -3.62677,-2.42329 -6.81978,-5.55351 -7.62578,-7.47582 -0.81623,-1.94673 -0.65056,-3.76454 0.53004,-5.81564 1.21984,-2.1193 2.20685,-3.1145 2.20685,-2.22519 0,1.11184 3.72552,6.06843 6.45289,8.5852 3.07048,2.83337 11.06201,8.33399 14.92308,10.27163 2.65717,1.33348 5.9216,2.49383 8.09053,2.87582 l 1.35999,0.23953 V 195.8571 178.20371 l -4.62397,-0.45329 c -11.92384,-1.16893 -16.51959,-3.90604 -16.52845,-9.84389 -0.0118,-7.78234 11.0949,-16.34201 19.28064,-14.85939 l 1.87178,0.33902 v -6.81732 -6.81732 h 2.53866 2.53864 v 7.40877 c 0,4.07482 0.10143,7.40876 0.22546,7.40876 0.42529,0 7.93415,1.09675 8.75049,1.27811 l 0.816,0.18128 v -8.13847 -8.13845 h 2.53866 2.53864 v 8.44873 c 0,6.31997 0.11428,8.54227 0.45333,8.82006 0.24933,0.20424 2.12743,0.95098 4.17355,1.6594 5.58021,1.93203 5.30252,1.68568 5.04138,4.4725 -0.12174,1.29899 -0.2741,2.4144 -0.33861,2.47869 -0.0645,0.0643 -1.98607,-0.44187 -4.27013,-1.12477 -2.28407,-0.68289 -4.3601,-1.24652 -4.6134,-1.25252 -0.36109,-0.008 -0.43941,1.63609 -0.36267,7.61608 l 0.0979,7.62697 5.11485,2.07259 c 2.81316,1.13993 6.1054,2.67224 7.3161,3.40513 6.34232,3.83935 10.25377,11.94163 9.13477,18.92196 -0.92651,5.77956 -4.80918,10.62688 -10.90161,13.61015 -3.23124,1.58224 -7.39229,2.7537 -9.78117,2.7537 h -1.06428 v 5.28552 5.28553 l -1.13333,-0.22588 c -0.62333,-0.12424 -1.76572,-0.22588 -2.53865,-0.22588 h -1.40532 v -5.05964 -5.05965 h -1.57628 c -0.86695,0 -3.07014,0.10566 -4.89597,0.23482 l -3.3197,0.23482 v 5.00553 5.00552 h -2.53864 -2.53866 z m 14.86925,-26.91318 c 0,-8.94472 -0.0843,-16.26313 -0.1875,-16.26313 -0.10307,0 -2.07456,-0.40658 -4.38098,-0.90351 -2.30643,-0.49693 -4.42524,-0.90351 -4.70848,-0.90351 -0.43765,0 -0.51499,2.57819 -0.51499,17.16664 v 17.16665 h 4.89598 4.89597 z m 9.61062,14.77417 c 4.73718,-1.93478 8.16141,-5.34744 9.68657,-9.65386 1.09158,-3.08217 0.80245,-7.16908 -0.72607,-10.26316 -2.01605,-4.08093 -6.45027,-7.55201 -11.58983,-9.07245 l -1.90399,-0.56327 v 15.52775 15.52773 l 0.99733,-0.23295 c 0.54853,-0.12812 2.13972,-0.69953 3.53599,-1.26979 z m -9.61062,-43.48439 c 0,-4.60487 -0.14565,-8.19994 -0.33698,-8.31777 -0.31634,-0.19483 -7.93495,-1.28073 -8.98552,-1.28073 -0.39109,0 -0.4647,1.53326 -0.38572,8.03467 l 0.0977,8.03466 4.5333,0.77846 c 2.49332,0.42815 4.6557,0.79702 4.80531,0.81971 0.14959,0.0227 0.272,-3.60836 0.272,-8.069 z m -14.86925,-2.88265 v -7.74028 l -1.62845,-0.61975 c -3.79015,-1.44244 -10.29083,0.26265 -12.87547,3.37715 -3.16095,3.80897 -1.77495,7.53938 3.7834,10.1829 2.79972,1.33154 7.02827,2.49258 9.17919,2.52035 l 1.54133,0.0199 z"
       style="fill:#00a600;fill-opacity:1;stroke-width:0.362033" />
    <path
       id="path941"
       d="m 520.93045,228.64677 c -4.45409,-3.35757 -9.43127,-8.23351 -18.6127,-18.23413 -10.98211,-11.96195 -10.92342,-11.90067 -11.17282,-11.66494 -0.12565,0.11875 0.5384,7.15115 1.47566,15.62755 0.93725,8.47641 1.63445,15.45309 1.54931,15.50373 -0.0851,0.0506 -2.31422,0.0435 -4.95352,-0.0159 l -4.79875,-0.10793 -0.006,-18.79095 c -0.004,-10.33503 -0.2447,-27.05702 -0.53606,-37.16 -0.29137,-10.10296 -0.53298,-20.07788 -0.53694,-22.16647 l -0.007,-3.79744 3.89332,-1.3e-4 3.89332,-1.3e-4 -0.1051,19.67267 -0.10511,19.67266 1.76645,-2.62819 c 0.97155,-1.44551 3.38202,-4.38209 5.35659,-6.52574 8.81627,-9.57116 11.57871,-13.73164 16.64176,-25.064 l 2.21177,-4.95052 2.5847,-0.10346 2.5847,-0.10346 -0.56481,1.86976 c -1.25022,4.13885 -2.10263,6.29705 -4.08697,10.34776 -2.58485,5.27656 -4.89041,8.91869 -10.75059,16.98284 -5.20037,7.15621 -11.00622,15.65475 -11.00622,16.1108 0,0.16703 0.88953,1.18527 1.97671,2.26277 1.08719,1.0775 5.14851,6.04901 9.02516,11.04782 11.11023,14.32627 16.36969,19.88677 20.973,22.17344 1.90103,0.94433 1.93376,1.31401 0.16263,1.83729 -3.17968,0.93946 -3.24697,0.92183 -6.85193,-1.79567 z"
       style="fill:#280b0b;fill-opacity:1;stroke-width:0.357682" />
    <path
       id="path945"
       d="m 594.2441,222.55624 c -0.49225,-1.36181 -1.93159,-5.74492 -3.19853,-9.74026 -2.04785,-6.45792 -3.45394,-10.41417 -5.1112,-14.38114 -0.41285,-0.98823 -0.73713,-1.30221 -1.61184,-1.56059 -1.83522,-0.54211 -5.45083,-0.70841 -8.29792,-0.38166 -7.8815,0.90453 -10.41202,1.04074 -12.54379,0.67518 -1.5416,-0.26436 -2.17263,-0.27269 -2.32221,-0.0307 -0.11296,0.18278 -1.53188,6.31383 -3.15314,13.62456 l -2.94775,13.29224 -1.97159,0.16297 c -1.08438,0.0896 -2.62049,0.0888 -3.41359,-0.002 -1.16887,-0.13374 -1.40672,-0.25671 -1.25574,-0.6493 0.93543,-2.43236 3.88773,-13.32633 9.48465,-34.9983 5.37562,-20.81507 8.0777,-30.81591 9.3657,-34.66402 l 0.95431,-2.85115 h 3.41727 3.41728 l 3.28888,9.45382 c 11.79074,33.89226 21.53937,62.74119 21.53937,63.74105 0,0.26003 -0.55475,0.46796 -1.57563,0.59058 -3.23085,0.38807 -3.06614,0.48053 -4.06453,-2.28152 z m -15.92286,-30.05978 c 4.60053,-0.86486 5.65902,-1.19183 5.65115,-1.74567 -0.007,-0.47921 -10.99241,-32.93915 -11.22727,-33.17401 -0.0946,-0.0946 -0.25403,-0.0898 -0.35441,0.0106 -0.53666,0.53666 -9.3085,30.65906 -9.57731,32.88839 -0.2026,1.68021 0.015,2.05157 1.53648,2.62183 1.78792,0.67013 8.81784,0.36765 13.97136,-0.60115 z"
       style="fill:#280b0b;fill-opacity:1;stroke-width:0.300121" />
    <path
       id="path949"
       d="m 619.50855,221.51385 c 1.07172,-5.20235 1.59667,-11.39102 2.02604,-23.88524 0.54608,-15.89031 -0.19833,-35.94655 -1.71276,-46.1457 -0.26046,-1.75412 -0.40313,-3.25975 -0.31703,-3.34585 0.0861,-0.0861 3.00429,-0.005 6.48487,0.18028 6.58214,0.35033 11.01318,1.04433 13.88311,2.17442 6.89586,2.71539 11.62285,9.48027 11.62285,16.63367 0,3.58593 -1.09744,6.45599 -3.70234,9.68244 -3.77806,4.67955 -9.23957,7.43412 -18.88179,9.52323 l -2.32594,0.50395 v 17.8271 17.8271 h -3.63898 -3.63897 z m 12.76357,-40.92652 c 7.38418,-1.85119 12.34178,-6.0778 13.4934,-11.50382 0.41101,-1.93654 0.20548,-3.64865 -0.76315,-6.35733 -2.04267,-5.71211 -5.48583,-8.96051 -10.49535,-9.90172 -1.86695,-0.35077 -7.23522,-0.18189 -7.62702,0.23994 -0.27294,0.29386 -0.4747,12.19753 -0.36947,21.79896 l 0.075,6.84615 1.42557,-0.20568 c 0.78407,-0.11312 2.70151,-0.52554 4.26099,-0.9165 z"
       style="fill:#280b0b;fill-opacity:1;stroke-width:0.300121" />
    <path
       style="fill:#280b0b;fill-opacity:1;stroke-width:0.300121"
       d="m 656.8993,220.42296 c 1.07172,-5.20235 1.59667,-11.39102 2.02604,-23.88524 0.54608,-15.89031 -0.19833,-35.94655 -1.71276,-46.1457 -0.26046,-1.75412 -0.40313,-3.25975 -0.31703,-3.34585 0.0861,-0.0861 3.00429,-0.005 6.48487,0.18028 6.58214,0.35033 11.01318,1.04433 13.88311,2.17442 6.89586,2.71539 11.62285,9.48027 11.62285,16.63367 0,3.58593 -1.09744,6.45599 -3.70234,9.68244 -3.77806,4.67955 -9.23957,7.43412 -18.88179,9.52323 l -2.32594,0.50395 v 17.8271 17.8271 h -3.63898 -3.63897 z m 12.76357,-40.92652 c 7.38418,-1.85119 12.34178,-6.0778 13.4934,-11.50382 0.41101,-1.93654 0.20548,-3.64865 -0.76315,-6.35733 -2.04267,-5.71211 -5.48583,-8.96051 -10.49535,-9.90172 -1.86695,-0.35077 -7.23522,-0.18189 -7.62702,0.23994 -0.27294,0.29386 -0.4747,12.19753 -0.36947,21.79896 l 0.075,6.84615 1.42557,-0.20568 c 0.78407,-0.11312 2.70151,-0.52554 4.26099,-0.9165 z"
       id="path949-4" />
  </g>
</svg>
