<?xml version="1.0" encoding="UTF-8" standalone="no"?>
<svg
   xmlns:dc="http://purl.org/dc/elements/1.1/"
   xmlns:cc="http://creativecommons.org/ns#"
   xmlns:rdf="http://www.w3.org/1999/02/22-rdf-syntax-ns#"
   xmlns:svg="http://www.w3.org/2000/svg"
   xmlns="http://www.w3.org/2000/svg"
   xmlns:sodipodi="http://sodipodi.sourceforge.net/DTD/sodipodi-0.dtd"
   xmlns:inkscape="http://www.inkscape.org/namespaces/inkscape"
   version="1.1"
   id="svg10"
   width="293.436"
   height="90.07972"
   viewBox="0 0 293.436 90.079721"
   sodipodi:docname="logo_liten.svg"
   inkscape:version="1.0 (4035a4fb49, 2020-05-01)">
  <metadata
     id="metadata16">
    <rdf:RDF>
      <cc:Work
         rdf:about="">
        <dc:format>image/svg+xml</dc:format>
        <dc:type
           rdf:resource="http://purl.org/dc/dcmitype/StillImage" />
        <dc:title></dc:title>
      </cc:Work>
    </rdf:RDF>
  </metadata>
  <defs
     id="defs14" />
  <sodipodi:namedview
     inkscape:pagecheckerboard="true"
     inkscape:document-rotation="0"
     pagecolor="#ffffff"
     bordercolor="#666666"
     borderopacity="1"
     objecttolerance="10"
     gridtolerance="10"
     guidetolerance="10"
     inkscape:pageopacity="0"
     inkscape:pageshadow="2"
     inkscape:window-width="1250"
     inkscape:window-height="759"
     id="namedview12"
     showgrid="true"
     inkscape:zoom="0.76253975"
     inkscape:cx="-38.783213"
     inkscape:cy="59.585714"
     inkscape:window-x="30"
     inkscape:window-y="20"
     inkscape:window-maximized="1"
     inkscape:current-layer="g18"
     fit-margin-top="0"
     fit-margin-left="0"
     fit-margin-right="0"
     fit-margin-bottom="0">
    <inkscape:grid
       id="grid17"
       type="xygrid"
       originx="-410.98353"
       originy="-141.95408" />
  </sodipodi:namedview>
  <g
     inkscape:groupmode="layer"
     inkscape:label="Image"
     id="g18"
     transform="translate(-410.98353,-141.95408)">
    <path
       style="fill:#34d04a;fill-opacity:1;stroke-width:0.362033"
       d="m 445.05345,226.69175 c 0,-3.87965 -0.11843,-5.29124 -0.45333,-5.40309 -7.32234,-2.4457 -20.32691,-8.58515 -25.48427,-12.03112 -3.62677,-2.42329 -6.81978,-5.55351 -7.62578,-7.47582 -0.81623,-1.94673 -0.65056,-3.76454 0.53004,-5.81564 1.21984,-2.1193 2.20685,-3.1145 2.20685,-2.22519 0,1.11184 3.72552,6.06843 6.45289,8.5852 3.07048,2.83337 11.06201,8.33399 14.92308,10.27163 2.65717,1.33348 5.9216,2.49383 8.09053,2.87582 l 1.35999,0.23953 v -17.65341 -17.65339 l -4.62397,-0.45329 c -11.92384,-1.16893 -16.51959,-3.90604 -16.52845,-9.84389 -0.0118,-7.78234 11.0949,-16.34201 19.28064,-14.85939 l 1.87178,0.33902 v -6.81732 -6.81732 h 2.53866 2.53864 v 7.40877 c 0,4.07482 0.10143,7.40876 0.22546,7.40876 0.42529,0 7.93415,1.09675 8.75049,1.27811 l 0.816,0.18128 v -8.13847 -8.13845 H 462.46136 465 v 8.44873 c 0,6.31997 0.11428,8.54227 0.45333,8.82006 0.24933,0.20424 2.12743,0.95098 4.17355,1.6594 5.58021,1.93203 5.30252,1.68568 5.04138,4.4725 -0.12174,1.29899 -0.2741,2.4144 -0.33861,2.47869 -0.0645,0.0643 -1.98607,-0.44187 -4.27013,-1.12477 -2.28407,-0.68289 -4.3601,-1.24652 -4.6134,-1.25252 -0.36109,-0.008 -0.43941,1.63609 -0.36267,7.61608 l 0.0979,7.62697 5.11485,2.07259 c 2.81316,1.13993 6.1054,2.67224 7.3161,3.40513 6.34232,3.83935 10.25377,11.94163 9.13477,18.92196 -0.92651,5.77956 -4.80918,10.62688 -10.90161,13.61015 -3.23124,1.58224 -7.39229,2.7537 -9.78117,2.7537 h -1.06428 v 5.28552 5.28553 l -1.13333,-0.22588 c -0.62333,-0.12424 -1.76572,-0.22588 -2.53865,-0.22588 h -1.40532 v -5.05964 -5.05965 h -1.57628 c -0.86695,0 -3.07014,0.10566 -4.89597,0.23482 l -3.3197,0.23482 v 5.00553 5.00552 h -2.53864 -2.53866 z m 14.86925,-26.91318 c 0,-8.94472 -0.0843,-16.26313 -0.1875,-16.26313 -0.10307,0 -2.07456,-0.40658 -4.38098,-0.90351 -2.30643,-0.49693 -4.42524,-0.90351 -4.70848,-0.90351 -0.43765,0 -0.51499,2.57819 -0.51499,17.16664 v 17.16665 h 4.89598 4.89597 z m 9.61062,14.77417 c 4.73718,-1.93478 8.16141,-5.34744 9.68657,-9.65386 1.09158,-3.08217 0.80245,-7.16908 -0.72607,-10.26316 -2.01605,-4.08093 -6.45027,-7.55201 -11.58983,-9.07245 L 465,185 v 15.52775 15.52773 l 0.99733,-0.23295 c 0.54853,-0.12812 2.13972,-0.69953 3.53599,-1.26979 z m -9.61062,-43.48439 c 0,-4.60487 -0.14565,-8.19994 -0.33698,-8.31777 -0.31634,-0.19483 -7.93495,-1.28073 -8.98552,-1.28073 -0.39109,0 -0.4647,1.53326 -0.38572,8.03467 l 0.0977,8.03466 4.5333,0.77846 c 2.49332,0.42815 4.6557,0.79702 4.80531,0.81971 0.14959,0.0227 0.272,-3.60836 0.272,-8.069 z m -14.86925,-2.88265 v -7.74028 l -1.62845,-0.61975 c -3.79015,-1.44244 -10.29083,0.26265 -12.87547,3.37715 -3.16095,3.80897 -1.77495,7.53938 3.7834,10.1829 2.79972,1.33154 7.02827,2.49258 9.17919,2.52035 l 1.54133,0.0199 z"
       id="path97" />
    <path
       style="fill:#ffffff;fill-opacity:1;stroke:#000000;stroke-width:0.357682;stroke-opacity:1"
       d="m 535.02239,226.46141 c -4.45409,-3.35757 -9.43127,-8.23351 -18.6127,-18.23413 -10.98211,-11.96195 -10.92342,-11.90067 -11.17282,-11.66494 -0.12565,0.11875 0.5384,7.15115 1.47566,15.62755 0.93725,8.47641 1.63445,15.45309 1.54931,15.50373 -0.0851,0.0506 -2.31422,0.0435 -4.95352,-0.0159 l -4.79875,-0.10793 -0.006,-18.79095 c -0.004,-10.33503 -0.2447,-27.05702 -0.53606,-37.16 -0.29137,-10.10296 -0.53298,-20.07788 -0.53694,-22.16647 l -0.007,-3.79744 3.89332,-1.3e-4 3.89332,-1.3e-4 -0.1051,19.67267 L 505,185 l 1.76645,-2.62819 c 0.97155,-1.44551 3.38202,-4.38209 5.35659,-6.52574 8.81627,-9.57116 11.57871,-13.73164 16.64176,-25.064 l 2.21177,-4.95052 2.5847,-0.10346 2.5847,-0.10346 -0.56481,1.86976 c -1.25022,4.13885 -2.10263,6.29705 -4.08697,10.34776 -2.58485,5.27656 -4.89041,8.91869 -10.75059,16.98284 -5.20037,7.15621 -11.00622,15.65475 -11.00622,16.1108 0,0.16703 0.88953,1.18527 1.97671,2.26277 1.08719,1.0775 5.14851,6.04901 9.02516,11.04782 11.11023,14.32627 16.36969,19.88677 20.973,22.17344 1.90103,0.94433 1.93376,1.31401 0.16263,1.83729 -3.17968,0.93946 -3.24697,0.92183 -6.85193,-1.79567 z"
       id="path941" />
    <path
       style="fill:#ffffff;fill-opacity:1;stroke:#000000;stroke-width:0.334558;stroke-opacity:1"
       d="m 599.28818,228.94772 c -0.55402,-1.50358 -2.17398,-6.34298 -3.59991,-10.75425 -2.30483,-7.1302 -3.88737,-11.49831 -5.7526,-15.87825 -0.46465,-1.0911 -0.82963,-1.43777 -1.8141,-1.72305 -2.06552,-0.59854 -6.13485,-0.78216 -9.33922,-0.42139 -8.87053,0.99869 -11.71861,1.14908 -14.11789,0.74547 -1.73505,-0.29188 -2.44527,-0.30108 -2.61362,-0.0339 -0.12713,0.20181 -1.72411,6.97112 -3.54882,15.04291 l -3.31766,14.676 -2.219,0.17993 c -1.22046,0.0989 -2.94933,0.0981 -3.84196,-0.002 -1.31555,-0.14766 -1.58325,-0.28343 -1.41332,-0.71689 1.05282,-2.68557 4.3756,-14.71363 10.67486,-38.64171 6.0502,-22.98197 9.09136,-34.02392 10.54099,-38.27263 L 570,150 h 3.8461 3.8461 l 3.7016,10.43799 c 13.27034,37.42052 24.24232,69.2727 24.24232,70.37665 0,0.2871 -0.62437,0.51667 -1.77336,0.65206 -3.63628,0.42847 -3.4509,0.53055 -4.57458,-2.51903 z m -17.921,-33.18908 c 5.17785,-0.95489 6.36917,-1.3159 6.36031,-1.9274 -0.008,-0.52909 -12.37183,-36.36819 -12.63617,-36.6275 -0.10647,-0.10445 -0.2859,-0.0992 -0.39888,0.0117 -0.604,0.59253 -10.47661,33.85075 -10.77915,36.31215 -0.22803,1.85513 0.0169,2.26515 1.72929,2.89477 2.01228,0.7399 9.92438,0.40593 15.7246,-0.66373 z"
       id="path945" />
    <path
       style="fill:#ffffff;fill-opacity:1;stroke:#040404;stroke-width:0.346458;stroke-opacity:1"
       d="m 619.55083,228.92611 c 1.29722,-5.72762 1.93263,-12.54116 2.45234,-26.29691 0.66098,-17.49474 -0.24006,-39.57604 -2.07314,-50.80499 -0.31527,-1.93123 -0.48796,-3.58888 -0.38374,-3.68368 0.10422,-0.0948 3.63643,-0.006 7.84936,0.19849 7.9671,0.3857 13.33048,1.14977 16.80428,2.39397 8.34682,2.98956 14.06842,10.43748 14.06842,18.31315 0,3.948 -1.32835,7.10785 -4.48135,10.66007 -4.57301,5.15204 -11.18368,8.18474 -22.85473,10.48478 l -2.81535,0.55484 V 210.37291 230 h -4.40466 -4.40465 z M 635,183.86728 c 8.9379,-2.0381 14.93863,-6.69147 16.33256,-12.66535 0.4975,-2.13207 0.24872,-4.01705 -0.92372,-6.99922 -2.47247,-6.28886 -6.64011,-9.86525 -12.70369,-10.90149 -2.25978,-0.38619 -8.75759,-0.20026 -9.23183,0.26416 -0.33037,0.32353 -0.57459,13.42911 -0.44721,23.99999 l 0.0908,7.5374 1.72552,-0.22645 c 0.94905,-0.12454 3.26994,-0.57861 5.15755,-1.00904 z"
       id="path949" />
    <path
       id="path949-4"
       d="m 669.25541,225.89239 c 1.17282,-5.38441 1.74729,-11.78965 2.21716,-24.72111 0.59759,-16.44639 -0.21704,-37.2045 -1.87432,-47.76057 -0.28503,-1.8155 -0.44116,-3.37382 -0.34694,-3.46294 0.0942,-0.0891 3.28769,-0.005 7.09659,0.18659 7.20303,0.36259 12.05205,1.08088 15.19271,2.25052 7.54634,2.81041 12.71923,9.81203 12.71923,17.21576 0,3.71142 -1.20096,6.68192 -4.05158,10.02128 -4.13445,4.84331 -10.11114,7.69428 -20.66291,9.85649 L 677,190 v 18.45096 18.45096 h -3.98225 -3.98223 z m 13.96756,-42.35875 c 8.08073,-1.91597 13.50599,-6.29049 14.76624,-11.9064 0.44978,-2.00431 0.22486,-3.77633 -0.83514,-6.5798 -2.23536,-5.91201 -6.00331,-9.27408 -11.48538,-10.24823 -2.04306,-0.36305 -7.91772,-0.18826 -8.34648,0.24833 -0.29868,0.30415 -0.51947,12.62439 -0.40432,22.56182 l 0.0821,7.08573 1.56004,-0.21288 c 0.85803,-0.11707 2.95635,-0.54393 4.66293,-0.94857 z"
       style="fill:#ffffff;fill-opacity:1;stroke:#000000;stroke-width:0.319404;stroke-opacity:1" />
    <path
       id="path19"
       d=""
       style="fill:#ffffff;stroke-width:1.17696" />
  </g>
</svg>
